<svg width="30" height="30" viewBox="0 0 30 30" fill="none" xmlns="http://www.w3.org/2000/svg">
<path d="M21.25 3.75C22.9076 3.75 24.4973 4.40848 25.6694 5.58058C26.8415 6.75269 27.5 8.3424 27.5 10V20C27.5 21.6576 26.8415 23.2473 25.6694 24.4194C24.4973 25.5915 22.9076 26.25 21.25 26.25H3.75C3.41848 26.25 3.10054 26.1183 2.86612 25.8839C2.6317 25.6495 2.5 25.3315 2.5 25V10C2.5 8.3424 3.15848 6.75269 4.33058 5.58058C5.50269 4.40848 7.0924 3.75 8.75 3.75H21.25ZM21.25 6.25H8.75C7.75544 6.25 6.80161 6.64509 6.09835 7.34835C5.39509 8.05161 5 9.00544 5 10V23.75H21.25C22.2446 23.75 23.1984 23.3549 23.9017 22.6517C24.6049 21.9484 25 20.9946 25 20V10C25 9.00544 24.6049 8.05161 23.9017 7.34835C23.1984 6.64509 22.2446 6.25 21.25 6.25ZM11.25 12.5C11.5815 12.5 11.8995 12.6317 12.1339 12.8661C12.3683 13.1005 12.5 13.4185 12.5 13.75V16.25C12.5 16.5815 12.3683 16.8995 12.1339 17.1339C11.8995 17.3683 11.5815 17.5 11.25 17.5C10.9185 17.5 10.6005 17.3683 10.3661 17.1339C10.1317 16.8995 10 16.5815 10 16.25V13.75C10 13.4185 10.1317 13.1005 10.3661 12.8661C10.6005 12.6317 10.9185 12.5 11.25 12.5ZM18.75 12.5C19.0562 12.5 19.3517 12.6124 19.5805 12.8159C19.8093 13.0193 19.9554 13.2997 19.9913 13.6038L20 13.75V16.25C19.9996 16.5686 19.8777 16.875 19.6589 17.1067C19.4402 17.3384 19.1413 17.4778 18.8233 17.4965C18.5052 17.5151 18.192 17.4117 17.9477 17.2072C17.7034 17.0027 17.5464 16.7126 17.5087 16.3962L17.5 16.25V13.75C17.5 13.4185 17.6317 13.1005 17.8661 12.8661C18.1005 12.6317 18.4185 12.5 18.75 12.5Z" fill="#0C8CE9"/>
</svg>
