<svg width="26" height="24" viewBox="0 0 26 24" fill="none" xmlns="http://www.w3.org/2000/svg">
<path d="M19.25 0.75C20.9076 0.75 22.4973 1.40848 23.6694 2.58058C24.8415 3.75269 25.5 5.3424 25.5 7V17C25.5 18.6576 24.8415 20.2473 23.6694 21.4194C22.4973 22.5915 20.9076 23.25 19.25 23.25H1.75C1.41848 23.25 1.10054 23.1183 0.866116 22.8839C0.631696 22.6495 0.5 22.3315 0.5 22V7C0.5 5.3424 1.15848 3.75269 2.33058 2.58058C3.50269 1.40848 5.0924 0.75 6.75 0.75H19.25ZM19.25 3.25H6.75C5.75544 3.25 4.80161 3.64509 4.09835 4.34835C3.39509 5.05161 3 6.00544 3 7V20.75H19.25C20.2446 20.75 21.1984 20.3549 21.9017 19.6517C22.6049 18.9484 23 17.9946 23 17V7C23 6.00544 22.6049 5.05161 21.9017 4.34835C21.1984 3.64509 20.2446 3.25 19.25 3.25ZM9.25 9.5C9.58152 9.5 9.89946 9.6317 10.1339 9.86612C10.3683 10.1005 10.5 10.4185 10.5 10.75V13.25C10.5 13.5815 10.3683 13.8995 10.1339 14.1339C9.89946 14.3683 9.58152 14.5 9.25 14.5C8.91848 14.5 8.60054 14.3683 8.36612 14.1339C8.1317 13.8995 8 13.5815 8 13.25V10.75C8 10.4185 8.1317 10.1005 8.36612 9.86612C8.60054 9.6317 8.91848 9.5 9.25 9.5ZM16.75 9.5C17.0562 9.50004 17.3517 9.61244 17.5805 9.81589C17.8093 10.0193 17.9554 10.2997 17.9912 10.6038L18 10.75V13.25C17.9996 13.5686 17.8777 13.875 17.6589 14.1067C17.4402 14.3384 17.1413 14.4778 16.8233 14.4965C16.5052 14.5151 16.192 14.4117 15.9477 14.2072C15.7034 14.0027 15.5464 13.7126 15.5087 13.3962L15.5 13.25V10.75C15.5 10.4185 15.6317 10.1005 15.8661 9.86612C16.1005 9.6317 16.4185 9.5 16.75 9.5Z" fill="white"/>
</svg>
